<svg xmlns="http://www.w3.org/2000/svg" xmlns:xlink="http://www.w3.org/1999/xlink" width="20" height="20" viewBox="0 0 512 512"><defs><style>.cls-1{fill:url(#radial-gradient);}.cls-2{fill:#e6e6e6;}.cls-3{fill:#ed1c24;stroke:#999;stroke-width:0.87px;}.cls-3,.cls-4{stroke-miterlimit:10;}.cls-4,.cls-5{fill:#4d4d4d;}.cls-4{stroke:#000;stroke-width:1.34px;}</style><radialGradient id="radial-gradient" cx="254" cy="254" r="258" gradientUnits="userSpaceOnUse"><stop offset="0" stop-color="#71c4ee"/><stop offset="0.17" stop-color="#6ec0ea"/><stop offset="0.34" stop-color="#64b3df"/><stop offset="0.53" stop-color="#539ecb"/><stop offset="0.71" stop-color="#3c80b0"/><stop offset="0.9" stop-color="#1f5b8e"/><stop offset="1" stop-color="#0b4277"/></radialGradient></defs><g id="Artboard_3" data-name="Artboard 3"><g id="Bg-4" data-name="Bg"><rect id="square-bg" class="cls-1" x="-4" y="-4" width="516" height="516"/></g><g id="Logo_w_text" data-name="Logo w text"><ellipse id="Circle" class="cls-2" cx="267.99" cy="392.23" rx="94.21" ry="8.08"/><polygon class="cls-3" points="427.04 112.31 338.11 112.31 308.92 186.02 386.62 186.28 427.04 112.31"/><path class="cls-3" d="M264.1,312h-1.51a689.29,689.29,0,0,0-21.54-68.34H162.86l52.91,124.52h89.61L361,243.66H286.37C278.1,266,270.53,288.9,264.1,312Z"/><polygon class="cls-3" points="191.11 112.31 107.04 112.31 138.12 185.45 219.12 185.72 191.11 112.31"/><line class="cls-4" x1="386.65" y1="186.47" x2="138.54" y2="186.21"/><line class="cls-4" x1="361.26" y1="243.53" x2="162.86" y2="244.03"/><g id="Limitless"><path class="cls-5" d="M159.67,223.54h15.76v2.79H155.26V200.46h4.41Z"/><path class="cls-5" d="M185.13,226.33h-4.38V200.46h4.38Z"/><path class="cls-5" d="M198.81,200.46l10.87,21.11,10.87-21.11h5.68v25.87h-4.38V216.26l.41-10.88-10.92,21H208l-10.89-20.9.43,10.83v10.07h-4.38V200.46Z"/><path class="cls-5" d="M238.68,226.33h-4.39V200.46h4.39Z"/><path class="cls-5" d="M269,203.25H258.31v23.08H254V203.25H243.29v-2.79H269Z"/><path class="cls-5" d="M278.34,223.54h15.75v2.79H273.93V200.46h4.41Z"/><path class="cls-5" d="M317.89,214.37H303.48v9.17h16.74v2.79H299.09V200.46H320v2.79H303.48v8.33h14.41Z"/><path class="cls-5" d="M335.47,214.8c-3.76-.84-6.5-1.88-8.21-3.1a5.45,5.45,0,0,1-2.57-4.54,5.88,5.88,0,0,1,3.14-5.06,15,15,0,0,1,8.16-2,16.87,16.87,0,0,1,6.11,1,9.77,9.77,0,0,1,4.16,2.84,6.17,6.17,0,0,1,1.47,4h-4.41a4.28,4.28,0,0,0-1.91-3.7,9.34,9.34,0,0,0-5.42-1.35,9.67,9.67,0,0,0-5.05,1.11,3.48,3.48,0,0,0-1.82,3.09,3.16,3.16,0,0,0,1.73,2.68,19.49,19.49,0,0,0,5.86,2,31.59,31.59,0,0,1,6.49,2,9.24,9.24,0,0,1,3.47,2.55,5.44,5.44,0,0,1,1.13,3.43,5.71,5.71,0,0,1-3.15,5,16.3,16.3,0,0,1-8.43,1.89,19.54,19.54,0,0,1-6.39-1,10.77,10.77,0,0,1-4.58-2.8,5.87,5.87,0,0,1-1.61-4h4.41a4.17,4.17,0,0,0,2.22,3.71,11.32,11.32,0,0,0,6,1.36,10.53,10.53,0,0,0,5.32-1.1,3.36,3.36,0,0,0,1.85-3,3.27,3.27,0,0,0-1.71-2.94A22.84,22.84,0,0,0,335.47,214.8Z"/><path class="cls-5" d="M363.21,214.8a23.52,23.52,0,0,1-8.21-3.1,5.45,5.45,0,0,1-2.57-4.54,5.88,5.88,0,0,1,3.14-5.06,15,15,0,0,1,8.17-2,16.91,16.91,0,0,1,6.11,1A9.79,9.79,0,0,1,374,204a6.17,6.17,0,0,1,1.47,4h-4.4a4.27,4.27,0,0,0-1.92-3.7,9.3,9.3,0,0,0-5.41-1.35,9.71,9.71,0,0,0-5.06,1.11,3.48,3.48,0,0,0-1.82,3.09,3.16,3.16,0,0,0,1.73,2.68,19.58,19.58,0,0,0,5.87,2,31.67,31.67,0,0,1,6.48,2,9.24,9.24,0,0,1,3.47,2.55,5.38,5.38,0,0,1,1.13,3.43,5.71,5.71,0,0,1-3.15,5,16.28,16.28,0,0,1-8.42,1.89,19.56,19.56,0,0,1-6.4-1,10.84,10.84,0,0,1-4.58-2.8,5.87,5.87,0,0,1-1.61-4h4.41a4.16,4.16,0,0,0,2.23,3.71,11.27,11.27,0,0,0,6,1.36,10.58,10.58,0,0,0,5.32-1.1,3.38,3.38,0,0,0,1.85-3,3.28,3.28,0,0,0-1.72-2.94A22.84,22.84,0,0,0,363.21,214.8Z"/></g></g></g></svg>