<svg xmlns="http://www.w3.org/2000/svg" fill="ghostwhite" width="20" height="20" viewBox="0 0 512 512"><defs><style>.cls-1{fill:#e6e6e6;}.cls-2{fill:#ed1c24;stroke:#999;stroke-width:1.09px;}.cls-2,.cls-3{stroke-miterlimit:10;}.cls-3,.cls-4{fill:#4d4d4d;}.cls-3{stroke:#000;stroke-width:1.67px;}</style></defs><g id="Artboard_1" data-name="Artboard 1"><ellipse id="circle" class="cls-1" cx="267.4" cy="446.24" rx="117.76" ry="10.1"/><polygon class="cls-2" points="466.21 96.34 355.05 96.34 318.56 188.49 415.69 188.82 466.21 96.34"/><path class="cls-2" d="M262.55,346h-1.89c-7.49-29.67-16.73-57.49-26.93-85.43H136l66.15,155.66h112l69.51-155.66H290.39C280,288.47,270.58,317.08,262.55,346Z"/><polygon class="cls-2" points="171.3 96.34 66.22 96.34 105.07 187.77 206.31 188.11 171.3 96.34"/><line class="cls-3" x1="415.73" y1="189.05" x2="105.59" y2="188.73"/><line class="cls-3" x1="384" y1="260.38" x2="136" y2="261"/><g id="Limitless"><path class="cls-4" d="M132,235.39H151.7v3.49H126.5V206.53H132Z"/><path class="cls-4" d="M163.83,238.88h-5.48V206.53h5.48Z"/><path class="cls-4" d="M180.93,206.53l13.59,26.39,13.58-26.39h7.11v32.35h-5.48v-12.6l.51-13.59L196.6,238.88h-4.2l-13.61-26.13.54,13.53v12.6h-5.48V206.53Z"/><path class="cls-4" d="M230.77,238.88h-5.48V206.53h5.48Z"/><path class="cls-4" d="M268.67,210H255.31v28.86h-5.45V210H236.53v-3.49h32.14Z"/><path class="cls-4" d="M280.34,235.39H300v3.49H274.83V206.53h5.51Z"/><path class="cls-4" d="M329.78,223.93h-18v11.46h20.92v3.49h-26.4V206.53H332.4V210H311.77v10.42h18Z"/><path class="cls-4" d="M351.76,224.46q-7-1.58-10.26-3.88a6.79,6.79,0,0,1-3.21-5.67c0-2.55,1.3-4.66,3.92-6.32s6-2.5,10.2-2.5a21.17,21.17,0,0,1,7.64,1.29,12,12,0,0,1,5.19,3.55,7.66,7.66,0,0,1,1.84,4.95h-5.5a5.34,5.34,0,0,0-2.4-4.62,11.7,11.7,0,0,0-6.77-1.69,12.06,12.06,0,0,0-6.32,1.4,4.31,4.31,0,0,0-2.27,3.86,4,4,0,0,0,2.16,3.35,24.52,24.52,0,0,0,7.33,2.5,40.31,40.31,0,0,1,8.11,2.5,11.67,11.67,0,0,1,4.34,3.19,6.81,6.81,0,0,1,1.41,4.29q0,3.93-3.94,6.3t-10.53,2.36a24.38,24.38,0,0,1-8-1.27,13.58,13.58,0,0,1-5.73-3.5,7.33,7.33,0,0,1-2-5.05h5.51a5.23,5.23,0,0,0,2.78,4.64,14.23,14.23,0,0,0,7.44,1.69,13.12,13.12,0,0,0,6.65-1.37,4.21,4.21,0,0,0,2.31-3.76,4.06,4.06,0,0,0-2.14-3.67A28.48,28.48,0,0,0,351.76,224.46Z"/><path class="cls-4" d="M386.44,224.46q-7.05-1.58-10.27-3.88a6.79,6.79,0,0,1-3.21-5.67q0-3.82,3.93-6.32c2.61-1.67,6-2.5,10.2-2.5a21.17,21.17,0,0,1,7.64,1.29,12.06,12.06,0,0,1,5.19,3.55,7.66,7.66,0,0,1,1.84,4.95h-5.51a5.33,5.33,0,0,0-2.39-4.62,11.7,11.7,0,0,0-6.77-1.69,12.06,12.06,0,0,0-6.32,1.4,4.31,4.31,0,0,0-2.27,3.86,4,4,0,0,0,2.16,3.35,24.52,24.52,0,0,0,7.33,2.5,40.52,40.52,0,0,1,8.11,2.5,11.67,11.67,0,0,1,4.34,3.19,6.81,6.81,0,0,1,1.41,4.29q0,3.93-3.94,6.3t-10.53,2.36a24.38,24.38,0,0,1-8-1.27,13.52,13.52,0,0,1-5.73-3.5,7.33,7.33,0,0,1-2-5.05h5.51a5.23,5.23,0,0,0,2.78,4.64,14.23,14.23,0,0,0,7.44,1.69,13.12,13.12,0,0,0,6.65-1.37,4.21,4.21,0,0,0,2.31-3.76A4.06,4.06,0,0,0,394.2,227,28.48,28.48,0,0,0,386.44,224.46Z"/></g></g></svg>
