<svg xmlns="http://www.w3.org/2000/svg" width="20" height="20" viewBox="0 0 512 512"><defs><style>.cls-1{fill:#fff;}.cls-2{fill:#e6e6e6;}.cls-3{fill:#ed1c24;stroke:#999;stroke-width:0.87px;}.cls-3,.cls-5{stroke-miterlimit:10;}.cls-4{fill:none;}.cls-5,.cls-6{fill:#4d4d4d;}.cls-5{stroke:#000;stroke-width:1.34px;}</style></defs><g id="Artboard_5" data-name="Artboard 5"><g id="bg-2" data-name="bg"><polygon id="square-bg" class="cls-1" points="513.5 515.9 0.5 515.9 0.5 -0.1 517.5 -0.1 513.5 515.9"/></g><g id="Logo_w_text" data-name="Logo w text"><ellipse class="cls-2" cx="268.49" cy="396.13" rx="94.21" ry="8.08"/><polygon class="cls-3" points="428.54 116.21 338.61 116.21 309.42 189.92 387.12 190.19 428.54 116.21"/><path class="cls-3" d="M264.61,315.9H263.1a694.61,694.61,0,0,0-21.54-68.34h-78.2l52.92,124.52h89.61L361.5,247.56H286.88C278.6,269.91,271,292.8,264.61,315.9Z"/><polygon class="cls-3" points="191.61 116.21 107.54 116.21 138.62 189.35 219.62 189.62 191.61 116.21"/><line class="cls-4" x1="138.32" y1="189.13" x2="387.15" y2="190.37"/><line class="cls-5" x1="387.15" y1="190.37" x2="139.04" y2="190.11"/><line class="cls-5" x1="361.77" y1="247.43" x2="163.37" y2="247.93"/><g id="Limitless"><path class="cls-6" d="M160.18,227.44h15.75v2.79H155.77V204.36h4.41Z"/><path class="cls-6" d="M185.64,230.23h-4.39V204.36h4.39Z"/><path class="cls-6" d="M199.31,204.36l10.87,21.11,10.87-21.11h5.69v25.87h-4.39V220.16l.41-10.88-10.91,20.95h-3.36l-10.89-20.9.43,10.83v10.07h-4.38V204.36Z"/><path class="cls-6" d="M239.18,230.23H234.8V204.36h4.38Z"/><path class="cls-6" d="M269.5,207.15H258.82v23.08h-4.36V207.15H243.79v-2.79H269.5Z"/><path class="cls-6" d="M278.84,227.44H294.6v2.79H274.44V204.36h4.4Z"/><path class="cls-6" d="M318.39,218.27H304v9.17h16.74v2.79H299.6V204.36h20.89v2.79H304v8.33h14.41Z"/><path class="cls-6" d="M336,218.7a23.52,23.52,0,0,1-8.21-3.1,5.44,5.44,0,0,1-2.56-4.54,5.86,5.86,0,0,1,3.14-5.06,15,15,0,0,1,8.16-2,16.91,16.91,0,0,1,6.11,1,9.66,9.66,0,0,1,4.15,2.85,6.15,6.15,0,0,1,1.48,4h-4.41a4.28,4.28,0,0,0-1.92-3.7,9.3,9.3,0,0,0-5.41-1.35,9.71,9.71,0,0,0-5.06,1.11,3.47,3.47,0,0,0-1.81,3.09,3.15,3.15,0,0,0,1.72,2.68,19.68,19.68,0,0,0,5.87,2,31.67,31.67,0,0,1,6.48,2,9.24,9.24,0,0,1,3.47,2.55,5.38,5.38,0,0,1,1.13,3.43,5.71,5.71,0,0,1-3.15,5,16.28,16.28,0,0,1-8.42,1.89,19.56,19.56,0,0,1-6.4-1,10.73,10.73,0,0,1-4.57-2.8,5.83,5.83,0,0,1-1.61-4h4.4a4.16,4.16,0,0,0,2.23,3.71,11.3,11.3,0,0,0,6,1.36,10.58,10.58,0,0,0,5.32-1.1,3.38,3.38,0,0,0,1.85-3,3.27,3.27,0,0,0-1.72-2.94A23.19,23.19,0,0,0,336,218.7Z"/><path class="cls-6" d="M363.72,218.7c-3.76-.84-6.5-1.88-8.21-3.1a5.45,5.45,0,0,1-2.57-4.54,5.88,5.88,0,0,1,3.14-5.06,15,15,0,0,1,8.16-2,16.87,16.87,0,0,1,6.11,1,9.76,9.76,0,0,1,4.16,2.85,6.14,6.14,0,0,1,1.47,4h-4.41a4.28,4.28,0,0,0-1.92-3.7,9.28,9.28,0,0,0-5.41-1.35,9.71,9.71,0,0,0-5.06,1.11,3.47,3.47,0,0,0-1.81,3.09,3.15,3.15,0,0,0,1.72,2.68,19.68,19.68,0,0,0,5.87,2,31.8,31.8,0,0,1,6.49,2,9.32,9.32,0,0,1,3.47,2.55,5.44,5.44,0,0,1,1.13,3.43,5.71,5.71,0,0,1-3.15,5,16.3,16.3,0,0,1-8.43,1.89,19.54,19.54,0,0,1-6.39-1,10.77,10.77,0,0,1-4.58-2.8,5.87,5.87,0,0,1-1.61-4h4.41a4.17,4.17,0,0,0,2.22,3.71,11.32,11.32,0,0,0,6,1.36,10.55,10.55,0,0,0,5.32-1.1,3.38,3.38,0,0,0,1.85-3,3.28,3.28,0,0,0-1.71-2.94A23.19,23.19,0,0,0,363.72,218.7Z"/></g></g></g></svg>